<?xml version="1.0" encoding="iso-8859-1"?>
<!-- Uploaded to: SVG Repo, www.svgrepo.com, Generator: SVG Repo Mixer Tools -->
<!DOCTYPE svg PUBLIC "-//W3C//DTD SVG 1.1//EN" "http://www.w3.org/Graphics/SVG/1.1/DTD/svg11.dtd">
<svg fill="#000000" version="1.1" id="Capa_1" xmlns="http://www.w3.org/2000/svg" xmlns:xlink="http://www.w3.org/1999/xlink" 
	 width="800px" height="800px" viewBox="0 0 301.296 301.296"
	 xml:space="preserve">
<g>
	<path d="M150.648,0C67.584,0,0,67.584,0,150.648c0,83.07,67.584,150.647,150.648,150.647c83.07,0,150.648-67.577,150.648-150.647
		C301.296,67.584,233.718,0,150.648,0z M237.802,156.797h-81.005v81.005c0,3.387-2.747,6.148-6.149,6.148
		c-3.393,0-6.149-2.762-6.149-6.148v-81.005H63.501c-3.396,0-6.149-2.75-6.149-6.148c0-3.393,2.753-6.149,6.149-6.149H144.5V63.494
		c0-3.393,2.756-6.148,6.149-6.148c3.402,0,6.149,2.756,6.149,6.148v80.999h81.005c3.398,0,6.148,2.756,6.148,6.148
		C243.951,154.035,241.201,156.797,237.802,156.797z"/>
</g>
</svg>