<?xml version="1.0" encoding="UTF-8"?><svg id="Layer_1" xmlns="http://www.w3.org/2000/svg" xmlns:xlink="http://www.w3.org/1999/xlink" viewBox="0 0 128 128"><defs><style>.cls-1,.cls-2{fill:#fff;}.cls-2{filter:url(#drop-shadow-1);opacity:.71;}</style><filter id="drop-shadow-1" filterUnits="userSpaceOnUse"><feOffset dx="4" dy="2"/><feGaussianBlur result="blur" stdDeviation="5"/><feFlood flood-color="#000" flood-opacity=".5"/><feComposite in2="blur" operator="in"/><feComposite in="SourceGraphic"/></filter></defs><circle class="cls-2" cx="64" cy="51.97" r="46.66"/><path d="M104.89,51.97c0-22.59-18.31-40.89-40.89-40.89S23.11,29.38,23.11,51.97c0,21.37,16.39,38.9,37.29,40.73v30.13h7.21v-30.13c20.89-1.83,37.29-19.36,37.29-40.73Z"/><path class="cls-1" d="M80.98,40.34c0-.75-.06-1.48-.25-2.21-.62-2.39-2.24-3.84-4.44-4.74-2.78-1.14-5.72-1.38-8.68-1.51-3.29-.15-6.57-.13-9.85,.18-2.07,.19-4.11,.54-6.06,1.33-3.04,1.24-4.66,3.49-4.67,6.69-.02,7.2-.02,14.4,0,21.6,0,1.68,.68,3.11,1.84,4.3,.19,.2,.28,.38,.27,.66-.01,1.73,0,3.45-.01,5.18,0,.24,.05,.33,.31,.33,1.92-.01,3.84-.01,5.76,0,.26,0,.31-.09,.31-.33-.01-1.19,0-2.38-.01-3.57,0-.29,.08-.37,.37-.37,5.42,0,10.83,0,16.25,0,.3,0,.37,.09,.36,.38-.02,1.18,0,2.35-.01,3.53,0,.29,.07,.37,.36,.37,1.89-.01,3.78-.01,5.67,0,.3,0,.37-.09,.37-.37-.01-1.67,0-3.33-.01-5,0-.37,.1-.63,.36-.9,1.15-1.21,1.76-2.65,1.76-4.34,0-3.57,0-7.14,0-10.71s0-6.99,0-10.49Zm-26.56,23.31c-1.77-.02-3.16-1.46-3.14-3.25,.02-1.75,1.43-3.12,3.21-3.11,1.75,.01,3.16,1.43,3.15,3.18,0,1.75-1.47,3.19-3.22,3.17Zm19.13,0c-1.75,0-3.21-1.48-3.18-3.22,.03-1.76,1.45-3.15,3.2-3.13,1.78,.01,3.22,1.46,3.18,3.2-.04,1.74-1.47,3.16-3.2,3.15Zm3.21-13.18c0,.36-.11,.43-.45,.43-4.11-.01-8.21,0-12.32,0s-8.15,0-12.23,.01c-.42,0-.5-.13-.49-.51,.02-3.21,.01-6.43,0-9.64,0-.37,.09-.47,.46-.47,8.18,.01,16.37,.01,24.55,0,.36,0,.48,.07,.48,.46-.02,3.24-.02,6.49,0,9.73Z"/></svg>