<svg id="Layer_1" data-name="Layer 1" xmlns="http://www.w3.org/2000/svg" viewBox="0 0 75.23 18.25"><defs><style>.cls-1{fill:#ed7c22;}.cls-2{fill:#231f20;}</style></defs><path class="cls-1" d="M72.56,2.59a8.75,8.75,0,0,1,2,3,9.11,9.11,0,0,1,.53,1.89V.17H67.83a8.86,8.86,0,0,1,1.69.49A8.74,8.74,0,0,1,72.56,2.59Z"/><path class="cls-2" d="M27.85,1.64a8.66,8.66,0,0,0-1.22-.09h-.35a8.66,8.66,0,0,0-1.22.09l-.51.08a.5.5,0,0,0-.43.49V8H19V2.21a.5.5,0,0,0-.42-.49l-.51-.08a8.91,8.91,0,0,0-1.23-.09H16.5a8.66,8.66,0,0,0-1.22.09l-.51.08a.49.49,0,0,0-.42.49V17.42a.5.5,0,0,0,.41.5l.51.07a10.29,10.29,0,0,0,1.23.08h.35A10.46,10.46,0,0,0,18.09,18l.51-.07a.5.5,0,0,0,.41-.5V11.7h5.11v5.72a.51.51,0,0,0,.42.5L25,18a10.46,10.46,0,0,0,1.24.08h.35A10.46,10.46,0,0,0,27.87,18l.5-.07a.51.51,0,0,0,.42-.5V2.21a.5.5,0,0,0-.42-.49Z"/><path class="cls-2" d="M58,15.07c-.11-.42-.31-.78-.71-.78H51.44s0-12.11,0-12.14c0-.41-.42-.5-.75-.55a10.93,10.93,0,0,0-2.74-.05c-.41,0-1.18,0-1.18.6l0,12.14,0,1.29a2.45,2.45,0,0,0,.67,1.82,2.31,2.31,0,0,0,1.5.65v0h7.5a1.66,1.66,0,0,0,1.2-.44,2,2,0,0,0,.46-1.52A4.69,4.69,0,0,0,58,15.07Z"/><path class="cls-2" d="M73,6.22A7.21,7.21,0,0,0,71.3,3.63,7.4,7.4,0,0,0,68.71,2a9.81,9.81,0,0,0-6.42,0A7.21,7.21,0,0,0,58,6.22a9.38,9.38,0,0,0-.63,3.56A9.5,9.5,0,0,0,58,13.31a7.39,7.39,0,0,0,1.7,2.6,7.16,7.16,0,0,0,2.58,1.62,9.28,9.28,0,0,0,3.25.55,9.51,9.51,0,0,0,3.25-.54,7.12,7.12,0,0,0,4.31-4.19,9.68,9.68,0,0,0,.61-3.57A9.38,9.38,0,0,0,73,6.22Zm-7.56,7.45a3.79,3.79,0,1,1,3.79-3.79A3.79,3.79,0,0,1,65.48,13.67Z"/><path class="cls-2" d="M46.36,17.13l-.1-.31c-.32-1-1.07-3.28-1.25-3.89s-.46-1.46-.73-2.28S43.74,9,43.44,8.14s-.58-1.68-.84-2.44-.51-1.45-.73-2-.34-.91-.45-1.21a.43.43,0,0,0-.23-.25A6.71,6.71,0,0,0,40,1.79a7.19,7.19,0,0,0-1.83-.24h-.39A7.07,7.07,0,0,0,36,1.79a6.57,6.57,0,0,0-1.2.41.45.45,0,0,0-.22.25c-.12.3-.27.7-.45,1.21s-.47,1.28-.73,2-.54,1.58-.84,2.44-.58,1.7-.85,2.51l-.72,2.28c-.19.61-.94,2.86-1.26,3.89,0,.06-.05.18-.09.31a.48.48,0,0,0,.37.63l.4.09a10.69,10.69,0,0,0,2.29.22l1.68,0a.5.5,0,0,0,.46-.36l.7-2.43c.17-.63.3-1,.3-1h4.36s.14.39.31,1c0,.2.49,1.73.69,2.43a.5.5,0,0,0,.47.36l1.68,0a10.6,10.6,0,0,0,2.28-.22l.4-.09A.5.5,0,0,0,46.36,17.13ZM36.55,10.5c.21-.81.42-1.6.64-2.38l.63-2.2.08-.23h.15c0,.07.05.15.07.23.2.66.41,1.39.64,2.2s.43,1.57.64,2.38Z"/><path class="cls-2" d="M13.51,15a3.65,3.65,0,0,0-.34-.5c-.08-.1-1-1.19-1.1-1.13a10.79,10.79,0,0,1-1.38.63,4.76,4.76,0,0,1-1.75.28,4.09,4.09,0,0,1-3.09-1.19A4.63,4.63,0,0,1,4.7,9.71a4.94,4.94,0,0,1,1-3.35,3.76,3.76,0,0,1,3-1.19,4.42,4.42,0,0,1,1.73.31,8.09,8.09,0,0,1,1.4.73c.62.41,1.57-1.85,1.61-2.26s-.28-.7-.62-.93a8,8,0,0,0-.89-.53,8.46,8.46,0,0,0-2-.69A9.11,9.11,0,0,0,5.46,2,4.5,4.5,0,0,0,5,2.15,7,7,0,0,0,2.47,3.71,7.3,7.3,0,0,0,.78,6.25,9.05,9.05,0,0,0,.16,9.71,9.35,9.35,0,0,0,.8,13.36a6.92,6.92,0,0,0,1.76,2.52,6.68,6.68,0,0,0,1,.72,7,7,0,0,0,1.67.87l.48.16a9.11,9.11,0,0,0,4.52.19,8.46,8.46,0,0,0,2-.69A9.94,9.94,0,0,0,13,16.6a1.33,1.33,0,0,0,.63-.69A1.22,1.22,0,0,0,13.51,15Z"/></svg>