<svg width="96" height="96" viewBox="0 0 96 96" fill="none" xmlns="http://www.w3.org/2000/svg">
<path d="M48 96C74.5097 96 96 74.5097 96 48C96 21.4903 74.5097 0 48 0C21.4903 0 0 21.4903 0 48C0 74.5097 21.4903 96 48 96Z" fill="#F7B000"/>
<mask id="mask0_678_301" style="mask-type:luminance" maskUnits="userSpaceOnUse" x="19" y="26" width="63" height="48">
<path d="M81.7993 26.4492H19.2588V73.4696H81.7993V26.4492Z" fill="white"/>
</mask>
<g mask="url(#mask0_678_301)">
<path d="M62.0709 29.1423C65.0303 29.1423 67.8573 29.7398 70.5541 30.7194V29.6713C69.8959 27.0362 68.5812 26.3799 66.6083 26.3799H23.2046C21.2317 26.4485 19.2588 27.1047 19.2588 29.7398V33.1586H48.721C52.6012 30.5921 57.1387 29.2108 62.0709 29.2108V29.1423Z" fill="white"/>
<path d="M37.4097 53.8088C37.4097 47.4317 39.843 41.5736 44.4461 36.7051H19.2588V60.6464C19.2588 62.6153 21.2317 64.594 23.2046 64.594H39.9743C38.3305 61.3026 37.4097 57.688 37.4097 53.8088ZM34.8451 56.7671H24.3223V55.4545H34.8451V56.7671Z" fill="white"/>
<path d="M62.0698 34.0801C51.2198 34.0801 42.3418 42.8866 42.3418 53.8091C42.3418 64.7217 51.1532 73.5379 62.0698 73.5379C72.9873 73.5379 81.7988 64.7217 81.7988 53.8091C81.7988 42.8866 72.9873 34.0801 62.0698 34.0801ZM64.4375 65.5837H59.7031V51.3796H64.4375V65.5837ZM64.4375 46.6384H59.7031V41.907H64.4375V46.6384Z" fill="white"/>
</g>
</svg>
