<?xml version="1.0" encoding="iso-8859-1"?>
<!-- Uploaded to: SVG Repo, www.svgrepo.com, Generator: SVG Repo Mixer Tools -->
<!DOCTYPE svg PUBLIC "-//W3C//DTD SVG 1.1//EN" "http://www.w3.org/Graphics/SVG/1.1/DTD/svg11.dtd">
<svg fill="#000000" version="1.1" id="Capa_1" xmlns="http://www.w3.org/2000/svg" xmlns:xlink="http://www.w3.org/1999/xlink" 
	 width="800px" height="800px" viewBox="0 0 337.013 337.014"
	 xml:space="preserve">
<g>
	<g>
		<path d="M28.715,215.714C12.883,215.714,0,202.833,0,187.005V57.91c0-15.834,12.883-28.712,28.715-28.712h220.147
			c15.829,0,28.715,12.877,28.715,28.712v18.678H88.15c-22.614,0-41.006,18.399-41.006,41.016v98.11H28.715z"/>
		<path d="M337.013,246.692c0,15.834-12.874,28.715-28.703,28.715h-14.705c-3.394,0-6.149,2.75-6.149,6.148v26.26l-25.58-30.229
			c-1.171-1.387-2.889-2.18-4.689-2.18H88.15c-15.826,0-28.708-12.881-28.708-28.715v-18.682v-12.297v-98.11
			c0-15.829,12.883-28.718,28.708-28.718h189.427h12.298h18.435c15.829,0,28.703,12.89,28.703,28.718V246.692z"/>
	</g>
</g>
</svg>