<?xml version="1.0" encoding="iso-8859-1"?>
<!-- Uploaded to: SVG Repo, www.svgrepo.com, Generator: SVG Repo Mixer Tools -->
<!DOCTYPE svg PUBLIC "-//W3C//DTD SVG 1.1//EN" "http://www.w3.org/Graphics/SVG/1.1/DTD/svg11.dtd">
<svg fill="#000000" version="1.1" id="Capa_1" xmlns="http://www.w3.org/2000/svg" xmlns:xlink="http://www.w3.org/1999/xlink" 
	 width="800px" height="800px" viewBox="0 0 302.593 302.594"
	 xml:space="preserve">
<g>
	<g>
		<path d="M157.443,7.978c11.935,13.805,31.504,39.929,44.265,74.555c-0.896,0.435-1.784,0.876-2.685,1.291
			c-1.321,0.601-2.666,1.156-4.005,1.714c-1.147,0.48-2.294,0.973-3.453,1.42c-1.381,0.528-2.774,1.003-4.167,1.489
			c-1.165,0.405-2.318,0.823-3.495,1.198c-1.423,0.456-2.882,0.85-4.323,1.249c-1.165,0.327-2.318,0.676-3.501,0.97
			c-1.501,0.378-3.021,0.685-4.533,1.009c-1.147,0.246-2.294,0.517-3.447,0.738c-1.597,0.294-3.219,0.522-4.834,0.763
			c-1.093,0.159-2.18,0.363-3.284,0.499c-0.841,0.105-1.69,0.159-2.543,0.24V7.978H157.443z"/>
		<path d="M145.145,95.846c-0.58,0.006-1.15,0.054-1.729,0.054c-2.558,0-5.098-0.072-7.623-0.216
			c-0.844-0.048-1.672-0.142-2.516-0.208c-1.678-0.129-3.369-0.246-5.035-0.432c-0.979-0.111-1.952-0.271-2.928-0.399
			c-1.513-0.201-3.026-0.394-4.519-0.651c-1.042-0.178-2.074-0.399-3.107-0.604c-1.408-0.271-2.822-0.535-4.224-0.853
			c-1.069-0.24-2.12-0.528-3.183-0.798c-1.348-0.346-2.696-0.673-4.035-1.06c-1.069-0.306-2.123-0.652-3.186-0.988
			c-1.297-0.408-2.6-0.813-3.885-1.261c-0.303-0.105-0.604-0.223-0.897-0.34c12.703-37.722,34.089-65.872,46.867-80.371V95.846z"/>
		<path d="M94.693,99.878c0.246,0.093,0.486,0.183,0.732,0.264c1.408,0.493,2.828,0.934,4.254,1.384
			c1.138,0.357,2.276,0.721,3.423,1.045c1.459,0.412,2.927,0.787,4.404,1.156c1.144,0.282,2.276,0.585,3.432,0.85
			c1.525,0.343,3.062,0.634,4.6,0.928c1.117,0.216,2.225,0.447,3.351,0.64c1.621,0.271,3.264,0.486,4.906,0.703
			c1.057,0.141,2.108,0.306,3.173,0.429c1.82,0.201,3.657,0.339,5.498,0.466c0.898,0.068,1.784,0.168,2.687,0.222
			c2.741,0.153,5.503,0.234,8.269,0.234c0.58,0,1.15-0.048,1.729-0.054v36.948h-57.16C88.415,128.992,90.892,113.866,94.693,99.878z
			"/>
		<path d="M145.145,157.38v37.085c-0.757,0.036-1.513,0.024-2.264,0.072c-0.946,0.048-1.889,0.168-2.834,0.24
			c-1.907,0.15-3.807,0.3-5.702,0.528c-1.135,0.126-2.249,0.324-3.375,0.48c-1.69,0.24-3.381,0.48-5.059,0.769
			c-1.195,0.216-2.369,0.48-3.555,0.732c-1.594,0.324-3.186,0.637-4.759,1.021c-1.219,0.289-2.423,0.625-3.63,0.949
			c-1.525,0.408-3.042,0.805-4.543,1.268c-1.225,0.365-2.429,0.774-3.642,1.17c-1.468,0.493-2.939,0.974-4.384,1.514
			c-1.204,0.438-2.398,0.913-3.585,1.381c-0.534,0.217-1.062,0.444-1.597,0.661c-5.011-16.646-7.539-32.643-8.148-47.87H145.145z"/>
		<path d="M102.034,216.148c1.084-0.433,2.159-0.883,3.254-1.279c1.357-0.504,2.735-0.954,4.113-1.405
			c1.087-0.372,2.177-0.744,3.276-1.08c1.408-0.433,2.834-0.799,4.26-1.189c1.096-0.288,2.177-0.606,3.279-0.871
			c1.471-0.354,2.951-0.643,4.44-0.954c1.075-0.216,2.152-0.469,3.233-0.661c1.562-0.288,3.144-0.498,4.723-0.721
			c1.021-0.144,2.03-0.324,3.057-0.443c1.738-0.205,3.492-0.343,5.251-0.48c0.88-0.072,1.75-0.181,2.63-0.229
			c0.528-0.036,1.066-0.023,1.594-0.048V293.4c-21.656-26.451-36.107-52.08-45.048-76.453
			C100.743,216.683,101.388,216.407,102.034,216.148z"/>
		<path d="M157.443,206.763c0.657,0.024,1.321,0.012,1.984,0.061c0.865,0.048,1.712,0.15,2.564,0.216
			c1.766,0.145,3.53,0.276,5.278,0.486c1.045,0.126,2.071,0.307,3.104,0.45c1.549,0.223,3.11,0.433,4.647,0.709
			c1.11,0.192,2.191,0.444,3.303,0.672c1.447,0.301,2.912,0.589,4.354,0.932c1.129,0.27,2.245,0.594,3.362,0.895
			c1.394,0.378,2.786,0.744,4.155,1.158c1.129,0.343,2.24,0.733,3.351,1.1c1.346,0.45,2.696,0.895,4.029,1.381
			c1.111,0.408,2.216,0.859,3.314,1.297c0.529,0.217,1.045,0.433,1.573,0.648c-9.421,25.881-24.385,51.474-45.032,76.67v-86.674
			H157.443z"/>
		<path d="M206.331,205.069c-0.438-0.174-0.87-0.366-1.314-0.54c-1.165-0.456-2.33-0.919-3.507-1.345
			c-1.478-0.541-2.961-1.033-4.456-1.525c-1.177-0.391-2.365-0.793-3.561-1.153c-1.531-0.462-3.074-0.877-4.611-1.285
			c-1.184-0.312-2.354-0.636-3.549-0.931c-1.592-0.378-3.207-0.702-4.804-1.026c-1.166-0.24-2.33-0.499-3.501-0.709
			c-1.688-0.3-3.394-0.528-5.093-0.769c-1.11-0.156-2.216-0.354-3.332-0.48c-1.897-0.229-3.801-0.372-5.717-0.517
			c-0.931-0.077-1.861-0.192-2.811-0.252c-0.877-0.048-1.769-0.036-2.645-0.078v-37.067h56.88
			C213.777,173.376,211.033,189.271,206.331,205.069z"/>
		<path d="M157.443,145.085v-37.632c1.315-0.111,2.645-0.208,3.942-0.375c1.188-0.141,2.348-0.348,3.519-0.522
			c1.777-0.258,3.543-0.51,5.296-0.834c1.237-0.228,2.45-0.516,3.675-0.775c1.67-0.357,3.339-0.702,4.996-1.113
			c1.256-0.312,2.486-0.67,3.724-1.015c1.597-0.441,3.2-0.886,4.773-1.384c1.249-0.387,2.479-0.828,3.717-1.252
			c1.537-0.531,3.075-1.06,4.588-1.642c1.249-0.474,2.468-0.985,3.693-1.496c1.482-0.615,2.948-1.23,4.413-1.894
			c0.612-0.276,1.219-0.577,1.825-0.865c5.177,17,8.125,33.945,8.684,50.794h-56.845V145.085z"/>
		<path d="M212.27,76.819c-13.133-34.933-32.564-61.438-44.958-76.087c31.831,3.351,61.627,16.57,85.568,38.266
			c-0.343,0.486-0.673,0.984-1.021,1.462c-0.762,1.045-1.537,2.075-2.317,3.093c-0.895,1.168-1.808,2.333-2.744,3.468
			c-0.823,0.997-1.657,1.981-2.51,2.954c-0.961,1.099-1.928,2.18-2.919,3.246c-0.877,0.946-1.771,1.876-2.666,2.792
			c-1.021,1.033-2.054,2.042-3.086,3.035c-0.938,0.886-1.874,1.766-2.835,2.621c-1.057,0.958-2.144,1.895-3.236,2.816
			c-0.984,0.829-1.976,1.648-2.984,2.447c-1.117,0.892-2.246,1.747-3.393,2.594c-1.027,0.769-2.06,1.525-3.104,2.258
			c-1.171,0.816-2.354,1.604-3.549,2.378c-1.075,0.702-2.144,1.396-3.225,2.06C212.955,76.432,212.606,76.624,212.27,76.819z"/>
		<path d="M135.312,0.679C122.104,16.276,100.86,45.393,87.799,83.83c-0.769-0.346-1.537-0.685-2.294-1.045
			c-1.039-0.499-2.065-1.027-3.092-1.55c-1.162-0.597-2.33-1.201-3.474-1.834c-1.021-0.559-2.023-1.144-3.026-1.727
			c-1.132-0.657-2.255-1.336-3.369-2.029c-0.991-0.622-1.96-1.255-2.933-1.901c-1.087-0.717-2.171-1.456-3.234-2.207
			c-0.96-0.676-1.913-1.378-2.861-2.084c-1.039-0.774-2.072-1.57-3.093-2.381c-0.928-0.738-1.85-1.489-2.765-2.258
			c-1.003-0.834-1.988-1.69-2.958-2.564c-0.892-0.787-1.777-1.591-2.651-2.408c-0.961-0.898-1.907-1.822-2.834-2.75
			c-0.85-0.844-1.69-1.69-2.516-2.559c-0.916-0.958-1.813-1.948-2.706-2.945c-0.798-0.892-1.597-1.777-2.378-2.693
			c-0.297-0.351-0.58-0.711-0.874-1.063C65.687,21.173,99.304,4.51,135.312,0.679z"/>
		<path d="M32.576,57.31c0.111,0.129,0.228,0.246,0.333,0.369c0.663,0.769,1.363,1.492,2.038,2.249
			c1.156,1.285,2.315,2.57,3.513,3.813c0.774,0.798,1.579,1.561,2.366,2.348c1.144,1.132,2.288,2.27,3.468,3.359
			c0.855,0.793,1.735,1.549,2.603,2.318c1.162,1.027,2.318,2.047,3.504,3.036c0.91,0.756,1.843,1.477,2.774,2.209
			c1.192,0.94,2.384,1.874,3.603,2.771c0.958,0.709,1.937,1.396,2.91,2.078c1.222,0.861,2.453,1.705,3.699,2.528
			c1.009,0.658,2.024,1.297,3.044,1.931c1.261,0.781,2.528,1.549,3.807,2.293c1.039,0.604,2.089,1.187,3.14,1.766
			c1.3,0.706,2.604,1.396,3.924,2.065c1.075,0.541,2.153,1.078,3.24,1.601c1.183,0.564,2.375,1.099,3.573,1.627
			c-4.26,15.271-7.101,31.816-7.653,49.414H0C1.297,113.115,12.709,82.392,32.576,57.31z"/>
		<path d="M42.604,242.996c-1.132,1.261-2.213,2.569-3.303,3.867c-0.747,0.9-1.522,1.777-2.254,2.702
			c-0.135,0.168-0.282,0.324-0.417,0.504C14.21,224.11,1.375,191.643,0,157.38h76.474c0.511,16.825,3.191,34.516,8.755,52.896
			c-0.928,0.475-1.85,0.955-2.774,1.447c-1.339,0.721-2.675,1.453-3.997,2.222c-1.12,0.637-2.23,1.297-3.333,1.982
			c-1.303,0.798-2.588,1.621-3.867,2.461c-1.078,0.709-2.147,1.418-3.204,2.156c-1.267,0.883-2.51,1.789-3.75,2.708
			c-1.026,0.769-2.053,1.525-3.068,2.318c-1.225,0.96-2.423,1.957-3.618,2.954c-0.976,0.816-1.955,1.633-2.906,2.474
			c-1.189,1.045-2.339,2.126-3.495,3.219c-0.91,0.853-1.838,1.712-2.729,2.595c-1.156,1.146-2.27,2.329-3.387,3.519
			C44.264,241.219,43.424,242.089,42.604,242.996z"/>
		<path d="M46.135,257.93c0.756-0.961,1.531-1.903,2.306-2.834c0.91-1.099,1.831-2.192,2.777-3.261
			c0.808-0.913,1.624-1.795,2.456-2.678c0.97-1.045,1.949-2.066,2.952-3.075c0.853-0.853,1.714-1.693,2.594-2.521
			c1.027-0.979,2.066-1.934,3.123-2.883c0.898-0.792,1.801-1.585,2.711-2.354c1.084-0.919,2.186-1.813,3.296-2.696
			c0.928-0.738,1.871-1.471,2.822-2.18c1.132-0.853,2.282-1.676,3.444-2.498c0.973-0.679,1.948-1.357,2.939-2.018
			c1.18-0.78,2.381-1.537,3.585-2.275c1.009-0.631,2.018-1.25,3.044-1.844c1.222-0.715,2.465-1.394,3.714-2.065
			c0.429-0.229,0.868-0.457,1.297-0.685c9.358,25.568,24.442,52.35,47.05,79.852c-34.401-3.363-66.167-18.194-91.065-42.73
			C45.501,258.776,45.808,258.345,46.135,257.93z"/>
		<path d="M166.351,301.915c22.668-27.568,37.752-54.403,47.107-80.02c0.517,0.275,1.039,0.54,1.562,0.816
			c1.213,0.654,2.426,1.32,3.621,2.018c1.051,0.601,2.095,1.249,3.128,1.885c1.165,0.721,2.33,1.441,3.465,2.198
			c1.027,0.679,2.042,1.381,3.051,2.09c1.116,0.78,2.228,1.573,3.32,2.39c0.984,0.732,1.958,1.489,2.925,2.258
			c1.074,0.847,2.144,1.718,3.188,2.594c0.948,0.793,1.879,1.604,2.81,2.426c1.021,0.913,2.03,1.838,3.026,2.787
			c0.901,0.853,1.802,1.717,2.685,2.6c0.967,0.967,1.915,1.958,2.853,2.948c0.864,0.925,1.717,1.844,2.552,2.786
			c0.907,1.021,1.796,2.066,2.685,3.129c0.805,0.967,1.615,1.939,2.396,2.937c0.312,0.396,0.606,0.816,0.919,1.213
			C232.704,283.636,200.867,298.552,166.351,301.915z"/>
		<path d="M266.168,249.817c-0.138-0.168-0.288-0.33-0.426-0.504c-0.715-0.896-1.472-1.742-2.204-2.625
			c-1.099-1.314-2.197-2.63-3.339-3.902c-0.805-0.896-1.646-1.754-2.468-2.625c-1.135-1.194-2.264-2.39-3.429-3.542
			c-0.877-0.865-1.777-1.688-2.666-2.528c-1.177-1.111-2.354-2.204-3.562-3.272c-0.93-0.817-1.891-1.604-2.834-2.402
			c-1.219-1.021-2.432-2.023-3.692-2.996c-0.985-0.774-1.988-1.52-2.991-2.264c-1.261-0.937-2.527-1.855-3.812-2.751
			c-1.033-0.72-2.078-1.404-3.129-2.089c-1.303-0.865-2.617-1.693-3.951-2.511c-1.074-0.66-2.155-1.297-3.242-1.927
			c-1.345-0.774-2.708-1.531-4.083-2.265c-0.973-0.516-1.952-1.026-2.931-1.524c5.53-18.315,8.19-35.938,8.695-52.71h76.477
			C301.212,191.522,288.447,223.907,266.168,249.817z"/>
		<path d="M226.117,145.085c-0.643-20.33-4.348-39.248-9.752-56.415c0.985-0.567,1.97-1.132,2.942-1.724
			c1.141-0.693,2.282-1.408,3.405-2.138c1.339-0.862,2.647-1.747,3.957-2.657c1.11-0.769,2.203-1.543,3.29-2.345
			c1.285-0.94,2.546-1.91,3.795-2.895c1.058-0.838,2.114-1.672,3.146-2.54c1.237-1.026,2.438-2.083,3.627-3.149
			c1.009-0.897,2.018-1.795,3.003-2.717c1.171-1.105,2.317-2.255,3.459-3.405c0.937-0.955,1.891-1.895,2.815-2.879
			c1.123-1.198,2.204-2.435,3.297-3.672c0.883-1,1.777-1.991,2.63-3.018c1.069-1.285,2.096-2.621,3.123-3.948
			c0.816-1.045,1.646-2.071,2.426-3.141c0.168-0.228,0.354-0.444,0.517-0.679c25.04,26.668,39.343,60.784,40.796,97.32H226.117z"/>
	</g>
</g>
</svg>