<?xml version="1.0" encoding="iso-8859-1"?>
<!-- Uploaded to: SVG Repo, www.svgrepo.com, Generator: SVG Repo Mixer Tools -->
<!DOCTYPE svg PUBLIC "-//W3C//DTD SVG 1.1//EN" "http://www.w3.org/Graphics/SVG/1.1/DTD/svg11.dtd">
<svg fill="#000000" version="1.1" id="Capa_1" xmlns="http://www.w3.org/2000/svg" xmlns:xlink="http://www.w3.org/1999/xlink" 
	 width="800px" height="800px" viewBox="0 0 313.625 313.625"
	 xml:space="preserve">
<g>
	<g>
		<path d="M156.815,0.003C70.208,0.003,0,70.211,0,156.813s70.208,156.809,156.815,156.809c86.601,0,156.81-70.207,156.81-156.809
			S243.416,0.003,156.815,0.003z M85.148,83.764c2.423-2.378,6.317-2.342,8.695,0.087l67.356,68.665
			c2.381,2.423,2.342,6.314-0.088,8.692c-1.186,1.177-2.747,1.759-4.296,1.759c-1.601,0-3.191-0.612-4.398-1.843L85.07,92.459
			C82.689,90.037,82.725,86.145,85.148,83.764z M156.815,301.318c-79.684,0-144.5-64.821-144.5-144.499
			c0-40.995,17.51-80.212,48.047-107.606c2.534-2.261,6.413-2.047,8.683,0.474c2.267,2.522,2.053,6.413-0.475,8.683
			c-27.94,25.064-43.958,60.949-43.958,98.449c0,72.898,59.306,132.201,132.202,132.201c72.892,0,132.201-59.303,132.201-132.201
			c0-70.202-56.276-128.83-126.053-132.058v64.161c0,3.396-2.756,6.149-6.148,6.149c-3.402,0-6.149-2.753-6.149-6.149V18.468
			c0-3.393,2.747-6.149,6.149-6.149c1.162,0,2.317,0.015,3.479,0.045c77.753,1.837,141.02,66.641,141.02,144.454
			C301.314,236.497,236.487,301.318,156.815,301.318z"/>
	</g>
</g>
</svg>