<?xml version="1.0" encoding="iso-8859-1"?>
<!-- Uploaded to: SVG Repo, www.svgrepo.com, Generator: SVG Repo Mixer Tools -->
<!DOCTYPE svg PUBLIC "-//W3C//DTD SVG 1.1//EN" "http://www.w3.org/Graphics/SVG/1.1/DTD/svg11.dtd">
<svg fill="#000000" version="1.1" id="Capa_1" xmlns="http://www.w3.org/2000/svg" xmlns:xlink="http://www.w3.org/1999/xlink" 
	 width="800px" height="800px" viewBox="0 0 304.372 304.371"
	 xml:space="preserve">
<g>
	<g>
		<path d="M280.785,48.23H23.575C10.581,48.23,0,58.814,0,71.806v14.339c0,12.995,10.581,23.575,23.575,23.575h257.21
			c13.006,0,23.587-10.581,23.587-23.575V71.806C304.372,58.814,293.791,48.23,280.785,48.23z"/>
		<path d="M280.785,120.861H23.575C10.581,120.861,0,131.445,0,144.437v14.342c0,12.995,10.581,23.575,23.575,23.575h257.21
			c13.006,0,23.587-10.58,23.587-23.575v-14.342C304.372,131.445,293.791,120.861,280.785,120.861z"/>
		<path d="M280.785,194.651H23.575C10.581,194.651,0,205.231,0,218.227v14.339c0,12.994,10.581,23.575,23.575,23.575h257.21
			c13.006,0,23.587-10.581,23.587-23.575v-14.339C304.372,205.231,293.791,194.651,280.785,194.651z"/>
	</g>
</g>
</svg>