<?xml version="1.0" encoding="iso-8859-1"?>
<!-- Uploaded to: SVG Repo, www.svgrepo.com, Generator: SVG Repo Mixer Tools -->
<!DOCTYPE svg PUBLIC "-//W3C//DTD SVG 1.1//EN" "http://www.w3.org/Graphics/SVG/1.1/DTD/svg11.dtd">
<svg fill="#000000" version="1.1" id="Capa_1" xmlns="http://www.w3.org/2000/svg" xmlns:xlink="http://www.w3.org/1999/xlink" 
	 width="800px" height="800px" viewBox="0 0 344.339 344.338"
	 xml:space="preserve">
<g>
	<g>
		<g>
			<path d="M303.326,326.406H41.013C18.396,326.406,0,308.006,0,285.393V113.259c0-22.614,18.396-41.013,41.013-41.013h262.313
				c22.614,0,41.013,18.398,41.013,41.013v172.134C344.339,308.006,325.94,326.406,303.326,326.406z"/>
		</g>
		<g>
			<path d="M300.528,54.827H43.811c-3.402,0-6.149-2.756-6.149-6.149c0-3.396,2.747-6.149,6.149-6.149h256.717
				c3.398,0,6.148,2.753,6.148,6.149C306.677,52.071,303.927,54.827,300.528,54.827z"/>
		</g>
		<g>
			<path d="M276.701,30.231H67.638c-3.402,0-6.149-2.756-6.149-6.148c0-3.396,2.747-6.149,6.149-6.149h209.063
				c3.398,0,6.148,2.753,6.148,6.149C282.85,27.475,280.1,30.231,276.701,30.231z"/>
		</g>
	</g>
</g>
</svg>