<svg width="96" height="96" viewBox="0 0 96 96" fill="none" xmlns="http://www.w3.org/2000/svg">
<path d="M48 96C74.5097 96 96 74.5097 96 48C96 21.4903 74.5097 0 48 0C21.4903 0 0 21.4903 0 48C0 74.5097 21.4903 96 48 96Z" fill="#F7B000"/>
<mask id="mask0_678_292" style="mask-type:luminance" maskUnits="userSpaceOnUse" x="16" y="28" width="64" height="48">
<path d="M79.5165 28.4082H16.4829V75.7994H79.5165V28.4082Z" fill="white"/>
</mask>
<g mask="url(#mask0_678_292)">
<path d="M59.6318 31.1317C62.6146 31.1317 65.4652 31.7194 68.1826 32.7186V31.6606C67.5194 29.0059 66.1941 28.3398 64.2055 28.3398H20.4598C18.4713 28.4084 16.4829 29.0745 16.4829 31.7194V35.1676H46.1771C50.0876 32.5814 54.6613 31.1904 59.6318 31.1904V31.1317Z" fill="white"/>
<path d="M34.7766 55.984C34.7766 49.548 37.2285 43.6509 41.8688 38.7432H16.4829V62.8705C16.4829 64.8591 18.4713 66.8476 20.4598 66.8476H37.3617C35.7043 63.5366 34.7766 59.8925 34.7766 55.984ZM32.1914 58.9618H21.5866V57.6394H32.1914V58.9618Z" fill="white"/>
<path d="M73.6174 41.9948C69.9058 38.2822 65.0666 36.0977 59.6318 36.0977C54.197 36.0977 49.3578 38.1548 45.6462 41.9948C41.9345 45.8348 39.7471 50.5467 39.7471 55.9834C39.7471 61.4104 41.8023 66.2496 45.6462 69.9622C49.4911 73.6749 54.197 75.8691 59.6318 75.8691C65.0666 75.8691 69.9058 73.812 73.6174 69.9622C77.3291 66.2496 79.5165 61.4104 79.5165 55.9834C79.5165 50.5467 77.4614 45.7075 73.6174 41.9948ZM66.9885 53.4658H65.1998C64.9343 55.4544 64.2712 56.5124 63.1446 57.8349C61.7526 59.1573 60.5595 59.696 58.1732 59.8233H57.7755L64.47 66.318C64.8677 66.7197 65.2654 66.9842 64.8677 68.0421C64.47 69.1001 63.4757 69.1002 63.078 69.1002C62.6803 69.1002 61.9515 68.7083 61.9515 68.7083L53.865 60.4895C53.335 59.9605 53.0039 58.9613 53.2027 58.3638C53.335 57.3058 54.5281 56.8454 55.5224 57.0413C56.3178 57.1687 57.3121 57.1687 58.1076 56.9042C59.8973 56.5123 61.2883 55.1801 61.5538 53.3286H52.5396C51.6119 53.3286 50.9487 52.8682 50.9487 51.8691C50.9487 50.5466 52.473 50.5466 52.473 50.5466H61.2883C60.6261 48.5581 58.5709 48.1565 57.4444 48.1565H52.473C52.0752 48.1565 50.9487 47.9606 50.9487 46.6969C50.9487 45.2471 52.473 45.247 52.473 45.247H66.5908C66.5908 45.247 67.9828 45.2471 67.9828 46.5696C67.9828 47.892 66.5908 47.892 66.5908 47.892H63.4101C63.6746 48.2936 64.8021 50.2821 64.8021 50.2821H66.8563C66.8563 50.2821 68.1161 50.2822 68.1161 51.8005C68.1161 53.4658 66.8563 53.4658 66.8563 53.4658H66.9885Z" fill="white"/>
</g>
</svg>
