<?xml version="1.0" encoding="iso-8859-1"?>
<!-- Uploaded to: SVG Repo, www.svgrepo.com, Generator: SVG Repo Mixer Tools -->
<!DOCTYPE svg PUBLIC "-//W3C//DTD SVG 1.1//EN" "http://www.w3.org/Graphics/SVG/1.1/DTD/svg11.dtd">
<svg fill="#000000" version="1.1" id="Capa_1" xmlns="http://www.w3.org/2000/svg" xmlns:xlink="http://www.w3.org/1999/xlink" 
	 width="800px" height="800px" viewBox="0 0 376.104 376.104"
	 xml:space="preserve">
<g>
	<g>
		<path d="M188.058,94.06c-50.26,0-91.138,40.884-91.138,91.141c0,50.248,40.878,91.129,91.138,91.129
			c50.248,0,91.129-40.881,91.129-91.129C279.187,134.943,238.3,94.06,188.058,94.06z"/>
		<path d="M188.052,78.651c3.393,0,6.149-2.75,6.149-6.149V6.149c0-3.399-2.757-6.149-6.149-6.149c-3.396,0-6.149,2.75-6.149,6.149
			v66.353C181.903,75.901,184.657,78.651,188.052,78.651z"/>
		<path d="M188.052,297.454c-3.396,0-6.149,2.75-6.149,6.148v66.353c0,3.399,2.753,6.149,6.149,6.149
			c3.393,0,6.149-2.75,6.149-6.149v-66.353C194.202,300.204,191.439,297.454,188.052,297.454z"/>
		<path d="M101.992,110.692c1.198,1.201,2.774,1.802,4.348,1.802s3.149-0.601,4.347-1.802c2.405-2.404,2.405-6.29,0-8.694
			L63.765,55.076c-2.405-2.405-6.29-2.405-8.695,0c-2.405,2.405-2.405,6.29,0,8.695L101.992,110.692z"/>
		<path d="M274.107,265.412c-2.401-2.402-6.293-2.402-8.694,0c-2.402,2.402-2.402,6.293,0,8.695l46.921,46.921
			c1.201,1.201,2.774,1.802,4.348,1.802s3.146-0.601,4.348-1.802c2.401-2.401,2.401-6.293,0-8.694L274.107,265.412z"/>
		<path d="M78.651,188.059c0-3.399-2.75-6.149-6.149-6.149H6.149c-3.401,0-6.148,2.75-6.148,6.149c0,3.393,2.747,6.148,6.148,6.148
			h66.353C75.895,194.207,78.651,191.451,78.651,188.059z"/>
		<path d="M369.956,181.909h-66.353c-3.399,0-6.149,2.75-6.149,6.149c0,3.393,2.75,6.148,6.149,6.148h66.353
			c3.398,0,6.148-2.756,6.148-6.148C376.104,184.66,373.348,181.909,369.956,181.909z"/>
		<path d="M102.003,265.412l-46.921,46.922c-2.405,2.401-2.405,6.293,0,8.694c1.198,1.201,2.774,1.802,4.348,1.802
			s3.146-0.601,4.347-1.802l46.922-46.921c2.405-2.402,2.405-6.293,0-8.695C108.293,263.01,104.409,263.01,102.003,265.412z"/>
		<path d="M269.759,112.494c1.573,0,3.146-0.601,4.348-1.802l46.922-46.921c2.401-2.405,2.401-6.29,0-8.695
			c-2.402-2.405-6.293-2.405-8.695,0l-46.921,46.922c-2.402,2.404-2.402,6.29,0,8.694
			C266.613,111.894,268.186,112.494,269.759,112.494z"/>
	</g>
</g>
</svg>