<?xml version="1.0" encoding="iso-8859-1"?>
<!-- Uploaded to: SVG Repo, www.svgrepo.com, Generator: SVG Repo Mixer Tools -->
<!DOCTYPE svg PUBLIC "-//W3C//DTD SVG 1.1//EN" "http://www.w3.org/Graphics/SVG/1.1/DTD/svg11.dtd">
<svg fill="#000000" version="1.1" id="Capa_1" xmlns="http://www.w3.org/2000/svg" xmlns:xlink="http://www.w3.org/1999/xlink" 
	 width="800px" height="800px" viewBox="0 0 330.612 330.612"
	 xml:space="preserve">
<g>
	<path d="M244.204,146.037h-12.797H105.354V41.013c0-15.834,12.887-28.715,28.715-28.715h62.474c15.84,0,28.715,12.88,28.715,28.715
		v44.48c0,3.402,2.75,6.149,6.148,6.149s6.149-2.747,6.149-6.149v-44.48C237.557,18.396,219.163,0,196.544,0H134.07
		c-22.617,0-41.013,18.396-41.013,41.013v105.024h-6.641c-22.617,0-41.013,18.39-41.013,41.006v102.562
		c0,22.62,18.396,41.007,41.013,41.007h157.789c22.613,0,41.006-18.387,41.006-41.007V187.043
		C285.21,164.427,266.817,146.037,244.204,146.037z"/>
</g>
</svg>